/* XPM */
static char *ec5e9863d62041faf052b69cb3dbfd2dPzIKFtXtH1ouSSsi[] = {
/* columns rows colors chars-per-pixel */
"32 32 49 1 ",
"  c #050504",
". c #0B0B0B",
"X c #121213",
"o c gray8",
"O c #1A1B1D",
"+ c #1F2021",
"@ c #222224",
"# c #232424",
"$ c #27282C",
"% c #2A2B2C",
"& c #323335",
"* c #37383B",
"= c #3E3E3F",
"- c #40403F",
"; c #444543",
": c #414345",
"> c #434445",
", c #454749",
"< c #494A4D",
"1 c #4D4D50",
"2 c #505051",
"3 c #515353",
"4 c #55575B",
"5 c #5C6064",
"6 c #5C6068",
"7 c #676868",
"8 c #6B6C6D",
"9 c #646970",
"0 c #6D7279",
"q c #777979",
"w c #7A7C7D",
"e c #7E8081",
"r c #7C8088",
"t c #808080",
"y c #818387",
"u c #898D94",
"i c #989790",
"p c #91959C",
"a c #9A9EA5",
"s c #A0A4A9",
"d c #A4A8AF",
"f c #A6ABB1",
"g c #ADB0B6",
"h c #B5B3B1",
"j c #B4B6B7",
"k c #BBBAB2",
"l c #B4B6B9",
"z c #B5B7BD",
"x c #D8D8D5",
/* pixels */
"kkxiikiikxxiiiixiixkxiiikixikiiw",
"kiiiiikkiiiiikiiiiiikiiiikiiiikt",
"iiixkxiiiiiiixiikikkkiiiikiiiikt",
"xkikkxiikiiiiiiikkkiiiiiikiiikit",
"iiiiikikiikiiiiiiiiiiiiiiiiikiit",
"kxiiiiiixkiixikiiiiikikiiiixiiit",
"kxikixiixxiiiikiiiiiixkiixxiiiit",
"iiiiiiiiikkiikiiixkiikkikixixiit",
"xiikxiiihiiikxiiikhiiiiiiiikiiit",
"xiiiiiiqh69053pdssh=;xiiiiikkixt",
"iiiiixiehruafgzzljh@+iiiikiixiit",
"iiiiiii7h.%:<41:,;h3=iiiikkiiiit",
"ikkkiiiiho+1iiiiiihxiiiixiiiiiit",
"xkixiiiikX&yiiiiixiiiiiiiiiiiiit",
"xiiiiiii#O*ixiihiiiiiiiiihiiixit",
"iiiiiiiwo%4iiiqh67053pdssh;;iiit",
"iixiiii8 Oiiiiehruafgzzllh@+kike",
"kkiiiiiiikiiii7h.%:141:,>h2-iixt",
"iiiikkxikxxixiiho+1iiiiiihiixiit",
"xiiiiiiikxiiiiiiX&rikxiiikkixkxt",
"xiixixiiikikiii#O*iikiikkiiixkkt",
"iiikiiixiiiiiiwo$4ikiiiiiiixiiit",
"xxiixixiiikiii8 Oixxiiiixixixiit",
"xikkiiiiikiikiiiiiikiiiikiiikkit",
"kiiiiiiiiiiiixiiiiiiikxiiiiikxit",
"kkiixiikxxxiiixiikiiixkiixiiiiit",
"iiiiixiiixxiixiiiikxiiiiiiiiiiit",
"iiiiiiikkiiiiiiiikixiiiiiiiiiiit",
"iiiikxiiiiiiixxxiiiiikxxixkiikxt",
"ikxxiiiiiikiiixiiiiiiixiiiixikit",
"xiiiiixiikiiiikkiiikiikiiiiiikit",
"tttttttttttttttttttttttttttttttt"
};
