/* XPM */
static char *_67d8abdd3084c718e3cfb4b8944067aozYh4GJNcZgIccQs[] = {
/* columns rows colors chars-per-pixel */
"32 32 17 1 ",
"  c gray13",
". c #DD2C00",
"X c #FF3D00",
"o c #FFEE58",
"O c #78909C",
"+ c #64B5F6",
"@ c #808080",
"# c #989790",
"$ c gray62",
"% c #BBBAB2",
"& c gray74",
"* c #FFF59D",
"= c #90CAF9",
"- c #BBDEFB",
"; c #D8D8D5",
": c #FFF9C4",
"> c #C5CAE9",
/* pixels */
"%%;##%##%;;##===========%#;#%##@",
"%#####%%####==+++++++++==%####%@",
"###;%;##===#===+++++++===%####%@",
";%#%%;#=++===-=========-=%###%#@",
"#####%==++++=-----------=###%##@",
"%;####=++====-==-----==-=##;###@",
"%;#%#;=++=##=->>=====>>-=;;####@",
"######=++=%#=--->>>>>---=#;#;##@",
";##%;#=++=##=-----------=##%###@",
";#####=++=#%=-----------=##%%#;@",
"#####;==+=%#=-----oo----=%##;##@",
"#######=+=%%=oo--o**o--o=%%####@",
"#%%%###=+==#=**oo***:oo:=######@",
";%#;###=++=#=**o**oo***:=######@",
";#######=+===**:oo::oo**=####;#@",
"#######%=+++=**:*******==;;;###@",
"##;####;#=====********:=%#%%%#%@",
"%%#######%###=**O:O:O**=;##%##;@",
"####%%;#%;;#;==*:OOO:*==####;##@",
";#######%;####==*:O:*==##%%#;%;@",
";##;#;###%#%###=======#%%###;%%@",
"###%###;#######.......#####;###@",
";;##;#;###%###.........#;#;#;##@",
";#%%#####%##%.XXXX..$$..%###%%#@",
"%#  #####  #.XXXXXX$&&$..###%;#@",
"%%  ;##% ;; .XXXXXX$&&$..;#####@",
"#### ;# #;;#.XXXXXXX$$...######@",
"#####  %%###.XXXXXXXX....######@",
"####%;######.............;%##%;@",
"#%;;######%###;#######;####;#%#@",
";#####;##%####%%###%##%######%#@",
"@@@@@@@@@@@@@@@@@@@@@@@@@@@@@@@@"
};
