/* XPM */
static char *_b038fecbb064be593cd634b82a1af30burHKSWMaL1SiRAS[] = {
/* columns rows colors chars-per-pixel */
"32 32 32 1 ",
"  c #676E6F",
". c #438793",
"X c #459AA7",
"o c #49ABBB",
"O c #51A4B1",
"+ c #50AEBA",
"@ c #52AEBF",
"# c #54B1C2",
"$ c #55B2C2",
"% c #5AB1C0",
"& c #5DB2C0",
"* c #5FB4C2",
"= c #58B5C6",
"- c #5EB4C4",
"; c #5EB8C7",
": c #5FB8C8",
"> c #6ABBC7",
", c #60B8CA",
"< c #67BDCE",
"1 c #67BECF",
"2 c #6EC0CF",
"3 c #72C2D1",
"4 c #75C6D4",
"5 c #808080",
"6 c #989790",
"7 c #95A1A4",
"8 c #BBBAB2",
"9 c #82C6D1",
"0 c #80C9D6",
"q c #87C8D4",
"w c #97DFED",
"e c #D8D8D5",
/* pixels */
"88e668668ee6666e66e8e66686e68665",
"866666886666686666>&&66668666685",
"666e8e6666666e668>00&&6668666685",
"e8688e6686666666>000<&&668666865",
"6666686866866666>000<<&&66668665",
"8e666666e866e686>00<<<<&666e6665",
"8e686e66ee66668>000<<<<&&ee66665",
"666666666886686>00<<<<<-&6e6e665",
"e668e666e6668>>000<<<<<-&&&86665",
"e6666666866>>0>00<<<<<---&&&86e5",
"66666e6666>,,>00<<<<-----&2&e665",
"6666666>>>,,.,,,,--.##www22&6665",
"68886>>>,,=.==,33-.##ww44222q665",
"e86e>w,,===.==,33##www44@222q665",
"e66>4w,,===.==333#ww44<<@%22qe65",
"666>4ww,,,,,,,333w44411@%%::q665",
"66e244wwwwww4444444121;@@>,;q685",
"88624444444444444111,;;;;#;$q6e5",
"666=44444444444411::;,;,##;$q665",
"e66214444444444411::,;,#$,,@98e5",
"e66>2244444434411:,;,;$$@&,$9885",
"666>=21111112;22:::,$$$$*&&@9665",
"ee6>;;11111122:::,#$$$$o,&,@9665",
"e68>;=$111113:;;:###$$oo*&#$9865",
"866o>;;;;;;;,;2o@==@oooo**@q9e65",
"8866o;;;;;;,@==@@@ooooo***+96665",
"6666+++oooo==@=@+oooooooo+9 6665",
"6666 ++XoooooooooooooooOOO 76665",
"66667   XXXXXXXXXXXXXXXO  7668e5",
"68ee6677                776e6865",
"e66666e6777777777777777766666865",
"55555555555555555555555555555555"
};
