/* XPM */
static char *_4c261ba3f814761d3c306d7ca038530KbPogezJTPR6hUg6[] = {
/* columns rows colors chars-per-pixel */
"32 32 4 1 ",
"  c #808080",
". c #989790",
"X c #BBBAB2",
"o c #D8D8D5",
/* pixels */
"XXo..X..Xoo....o..oXo...X.o.X.. ",
"X.....XX.....X......X....X....X ",
"...oXo.......o..X.XXX....X....X ",
"oX.XXo..X.......XXX......X...X. ",
".....X.X..X.................X.. ",
"Xo......oX..o.X.....X.X....o... ",
"Xo.X.o..oo....X......oX..oo.... ",
".........XX..X...oX..XX.X.o.o.. ",
"o..Xo...o...Xo...X.........X... ",
"o.......X..X.........o.....XX.o ",
".....o....X.....X.o......X..o.. ",
"..........XX...o.X.......XX.... ",
".XXX....o.X........o....o...... ",
"oX.o....Xo.......o............. ",
"o.......oXo.o..X.............o. ",
".......X............Xo...ooo... ",
"..o....o............oo..X.XXX.X ",
"XX.......X......X.oX....o..X..o ",
"....XXo.Xoo.o...............o.. ",
"o.......Xo..........Xo...XX.oXo ",
"o..o.o...X.X....XX..X..XX...oXX ",
"...X...o........oo.X.......o... ",
"oo..o.o...X...o...oo....o.o.o.. ",
"o.XX.....X..X......X....X...XX. ",
"X............o.......Xo.....Xo. ",
"XX..o..Xooo...o..X...oX..o..... ",
".....o...oo..o....Xo........... ",
".......XX........X.o........... ",
"....Xo.......ooo.....Xoo.oX..Xo ",
".Xoo......X...o.......o....o.X. ",
"o.....o..X....XX...X..X......X. ",
"                                "
};
