/* XPM */
static char *_a7a5a632e3e4db1d9c83688a8c0811aBqqkVc7qc2tChtzw[] = {
/* columns rows colors chars-per-pixel */
"32 32 9 1 ",
"  c #6A6C6D",
". c #7A7C7D",
"X c #91651A",
"o c #AF791E",
"O c #808080",
"+ c #989790",
"@ c #A0959F",
"# c #BBBAB2",
"$ c #D8D8D5",
/* pixels */
"##$++#++#$$++++$++$#$+++#+$+#++O",
"#+++++##+++++#++++++#++++#++++#O",
"+++$#$+++++++$++#+###++++#++++#O",
"$#+##$++#+++++++###++++++#+++#+O",
"+++++#+#++#+++++++++++++++++#++O",
"#$++++++$#++$+#+++++#+#++++$+++O",
"#$+#+$++$$++++#++++++$#++$$++++O",
"+++++++++##++#+++$#++##+#+$+$++O",
"$++#$+++$+++#$+++#+++++++++#+++O",
"$+++++++#++#+++++++++$+++++##+$O",
"++  +$++++#+++++#+$++++++#++$++O",
"+ .. ++++    ++$+#+++++++##++++O",
" ... ++   ... +++++$++++$++++++O",
" .. ++  .. ...  +X+++++++++++++O",
" .. +  . .. ....XoX++++++++++$+O",
"+ .    .. .....XoooX#$+++$$$+++O",
"+ ..... .. ...XoooooX$++#+###+#O",
"## ..... ......XoooXX+++$++#++$O",
"++ .........  ..XoXoX+++++++$++O",
"$ ..@......  XXXXXooX$+++##+$#$O",
"$ ......... oooooXooX++##+++$##O",
"+ ........  oooooXooX++++++$+++O",
"$ ... ...  ooooooXooX+++$+$+$++O",
"$ ..  .. ooooooooXooX+++#+++##+O",
"# .. + . ooooooooXoX+#$+++++#$+O",
"# .  + .. oooooooXX++$#++$+++++O",
"++  +$+   XXXXXXXX#$+++++++++++O",
"+++++++##++++++++#+$+++++++++++O",
"++++#$+++++++$$$+++++#$$+$#++#$O",
"+#$$++++++#+++$+++++++$++++$+#+O",
"$+++++$++#++++##+++#++#++++++#+O",
"OOOOOOOOOOOOOOOOOOOOOOOOOOOOOOOO"
};
