/* XPM */
static char *_98a887c637b4510b7107ba11d31d3c0CZBVC4qhJVKEasOl[] = {
/* columns rows colors chars-per-pixel */
"32 32 5 1 ",
"  c black",
". c #25130D",
"X c #321A12",
"o c #472317",
"O c #994F36",
/* pixels */
" ooooooooooooooo ooooooooooooooo",
" ooooooooooooooo ooooooooooooooo",
" ooO..........oo ooO..........oo",
" ooOooooooooo.oo ooOooooooooo.oo",
" ooOooooooooo.oo ooOooooooooo.oo",
" ooOooooooooo.oo ooOooooooooo.oo",
" ooOooooooooo.oo ooOooooooooo.oo",
" ooOooooooooo.oo ooOooooooooo.oo",
" ooOooooooooo.oo ooOooooooooo.oo",
" ooOooooooooo.oo ooOooooooooo.oo",
" ooOooooooooo.oo ooOooooooooo.oo",
" ooOooooooooo.oo ooOooooooooo.oo",
" ooOOOOOOOOOO.oo ooOOOOOOOOOO.oo",
" ooooooooooooooo ooooooooooooooo",
" ooooooooooooooo ooooooooooooooo",
"                                ",
" ooooooooooooooo ooooooooooooooo",
" ooooooooooooooo ooooooooooooooo",
" ooO..........oo ooO..........oo",
" ooOooooooooo.oo ooOooooooooo.oo",
" ooOooooooooo.oo ooOooooooooo.oo",
" ooOooooooooo.oo ooOooooooooo.oo",
" ooOooooooooo.oo ooOooooooooo.oo",
" ooOooooooooo.oo ooOooooooooo.oo",
" ooOooooooooo.oo ooOooooooooo.oo",
" ooOooooooooo.oo ooOooooooooo.oo",
" ooOooooooooo.oo ooOooooooooo.oo",
" ooOOOOOOOOOO.oo ooOOOOOOOOOO.oo",
" ooooooooooooooo ooooooooooooooo",
" ooooooooooooooo ooooooooooooooo",
"XXXXXXXXXXXXXXXXXXXXXXXXXXXXXXXX",
"................................"
};
